<svg aria-hidden="true" style="position: absolute; width: 0; height: 0; overflow: hidden;" version="1.1" xmlns="http://www.w3.org/2000/svg" xmlns:xlink="http://www.w3.org/1999/xlink">
<defs>

<symbol id="icon-cross" viewBox="0 0 32 32">
<path d="M32 3.223l-3.223-3.223-12.777 12.777-12.777-12.777-3.223 3.223 12.777 12.777-12.777 12.777 3.223 3.223 12.777-12.777 12.777 12.777 3.223-3.223-12.777-12.777 12.777-12.777z"></path>
</symbol>

<symbol id="icon-previous" viewBox="0 0 32 32">
<path  d="M23.619 2.804l-13.416 13.196 13.416 13.196-2.072 2.042-15.451-15.246 15.451-15.23 2.072 2.042z"></path>
</symbol>

<symbol id="icon-next" viewBox="0 0 32 32">
<path  d="M8.381 29.196l13.416-13.196-13.416-13.196 2.072-2.042 15.451 15.246-15.451 15.23-2.072-2.042z"></path>
</symbol>

<symbol id="icon-system-uicons_loader" viewBox="0 0 31 32">
<path  d="M15.652 5.277v2.981"></path>
<path  d="M23.106 8.258l-2.236 2.236"></path>
<path  d="M8.199 8.258l2.236 2.236"></path>
<path  d="M15.652 26.146v-2.981"></path>
<path  d="M23.106 23.165l-2.236-2.236"></path>
<path  d="M8.199 23.165l2.236-2.236"></path>
<path  d="M5.217 15.711h2.981"></path>
<path  d="M23.106 15.711h2.981"></path>
</symbol>
<symbol id="icon-clip" viewBox="0 0 35 32"><path fill="var(--color1, #cdcdcd)" d="M6.3 32c-1.489 0-2.811-.559-3.967-1.677C1.111 29.14.5 27.705.5 26.017s.611-3.124 1.833-4.307L21.5 2.033c.978-.968 2.106-1.591 3.383-1.871s2.572-.204 3.883.226 2.522 1.172 3.633 2.226c.356.366.683.769.983 1.21s.544.903.733 1.387a8.796 8.796 0 01.583 3.145c-.044 2.28-.844 4.183-2.4 5.71l-14.5 14.903c-.2.215-.444.328-.733.339s-.539-.081-.75-.274c-.211-.193-.322-.435-.333-.726s.083-.543.283-.758l14.5-14.903c1.178-1.161 1.778-2.602 1.8-4.323s-.544-3.129-1.7-4.226c-.711-.71-1.5-1.247-2.367-1.613s-1.8-.484-2.8-.355c-1 .129-1.889.57-2.667 1.323L3.864 23.13c-.822.796-1.233 1.753-1.233 2.871s.411 2.075 1.233 2.871c.378.366.789.64 1.233.823s.911.253 1.4.21c.978-.043 1.889-.484 2.733-1.323l15.233-15.677a4.621 4.621 0 00.634-.758c.111-.161.2-.333.267-.516s.111-.366.133-.548-.011-.371-.1-.565a1.821 1.821 0 00-.4-.548c-.422-.43-.833-.624-1.233-.581-.422.043-.9.312-1.433.806L10.864 22.001c-.133.129-.289.22-.467.274s-.361.059-.55.016-.35-.129-.483-.258c-.222-.193-.333-.43-.333-.71s.1-.527.3-.742L20.798 8.742c.911-.86 1.833-1.333 2.767-1.419 1.067-.086 2.044.301 2.933 1.161.844.796 1.217 1.731 1.117 2.806s-.639 2.086-1.617 3.032l-15.233 15.71c-1.244 1.204-2.633 1.85-4.167 1.936-.044 0-.094.005-.15.016s-.106.016-.15.016z"/></symbol>
<symbol id="icon-paper-clip" viewBox="0 0 35 32">
<path d="M6.295 32c-1.489 0-2.811-0.56-3.967-1.678-1.222-1.184-1.832-2.617-1.832-4.305 0-1.689 0.61-3.124 1.832-4.307l19.166-19.674c0.897-0.911 2.047-1.57 3.336-1.863l0.046-0.009c0.461-0.104 0.991-0.164 1.535-0.164 0.84 0 1.648 0.143 2.399 0.405l-0.051-0.016c1.312 0.432 2.523 1.173 3.633 2.227 0.352 0.363 0.676 0.758 0.964 1.179l0.020 0.031c0.299 0.44 0.544 0.902 0.733 1.387 0.368 0.933 0.583 2.014 0.584 3.145v0.001c-0.045 2.278-0.845 4.182-2.4 5.708l-14.499 14.901c-0.181 0.202-0.441 0.331-0.731 0.339l-0.001 0c-0.017 0.001-0.038 0.002-0.058 0.002-0.269 0-0.513-0.105-0.695-0.276l0 0c-0.2-0.18-0.326-0.438-0.331-0.725v-0.001c-0.001-0.016-0.001-0.035-0.001-0.053 0-0.274 0.109-0.523 0.285-0.705l-0 0 14.497-14.901c1.177-1.161 1.777-2.603 1.8-4.323s-0.544-3.129-1.699-4.225c-0.661-0.669-1.446-1.213-2.32-1.594l-0.048-0.019c-0.604-0.258-1.308-0.409-2.046-0.409-0.266 0-0.527 0.019-0.782 0.057l0.029-0.003c-1 0.128-1.888 0.57-2.665 1.323l-19.166 19.674c-0.821 0.797-1.232 1.753-1.232 2.872 0 1.117 0.411 2.075 1.232 2.87 0.379 0.365 0.79 0.64 1.235 0.822 0.443 0.182 0.91 0.253 1.398 0.21 0.979-0.043 1.889-0.483 2.734-1.323l15.23-15.675c0.233-0.226 0.442-0.474 0.623-0.742l0.010-0.016c0.112-0.16 0.202-0.333 0.267-0.515 0.067-0.184 0.112-0.366 0.134-0.549 0.004-0.032 0.006-0.070 0.006-0.107 0-0.167-0.039-0.324-0.109-0.463l0.003 0.006c-0.103-0.213-0.237-0.395-0.399-0.548l-0.001-0.001c-0.422-0.429-0.832-0.624-1.232-0.581-0.424 0.043-0.901 0.312-1.435 0.806l-11.464 11.807c-0.128 0.123-0.284 0.217-0.459 0.27l-0.008 0.002c-0.093 0.029-0.199 0.046-0.309 0.046-0.28 0-0.535-0.109-0.725-0.287l0.001 0.001c-0.204-0.168-0.333-0.42-0.333-0.702 0-0.003 0-0.006 0-0.009v0c0-0.28 0.099-0.528 0.299-0.742l11.466-11.837c0.912-0.859 1.833-1.333 2.768-1.419 1.065-0.086 2.043 0.301 2.931 1.161 0.845 0.795 1.216 1.731 1.117 2.806s-0.638 2.086-1.616 3.032l-15.23 15.708c-1.246 1.203-2.635 1.849-4.167 1.936-0.054 0.001-0.105 0.006-0.156 0.017l0.005-0.001c-0.044 0.010-0.096 0.015-0.148 0.016h-0z"></path>
</symbol>
</defs>
</svg>
